<svg width="32" height="32" viewBox="0 0 32 32" fill="none" xmlns="http://www.w3.org/2000/svg">
<path d="M6.2875 22.6353C5.85257 22.6353 5.5 22.9781 5.5 23.401C5.5 23.8238 5.85257 24.1666 6.2875 24.1666H25.7125C26.1474 24.1666 26.5 23.8238 26.5 23.401C26.5 22.9781 26.1474 22.6353 25.7125 22.6353H6.2875Z" fill="#C4C4C4"/>
<path d="M6.2875 15.2343C5.85257 15.2343 5.5 15.5771 5.5 15.9999C5.5 16.4228 5.85257 16.7655 6.2875 16.7655H25.7125C26.1474 16.7655 26.5 16.4228 26.5 15.9999C26.5 15.5771 26.1474 15.2343 25.7125 15.2343H6.2875Z" fill="#C4C4C4"/>
<path d="M6.2875 7.83325C5.85257 7.83325 5.5 8.17603 5.5 8.59888C5.5 9.02172 5.85257 9.3645 6.2875 9.3645H25.7125C26.1474 9.3645 26.5 9.02172 26.5 8.59888C26.5 8.17603 26.1474 7.83325 25.7125 7.83325H6.2875Z" fill="#C4C4C4"/>
</svg>
